<svg width="151" height="28" viewBox="0 0 151 28" fill="none" xmlns="http://www.w3.org/2000/svg">
<path d="M143.911 17.8937L141.627 18.958C141.465 19.3267 141.217 19.6513 140.904 19.9047C140.591 20.158 140.222 20.3327 139.828 20.4141C139.433 20.4956 139.025 20.4814 138.637 20.3729C138.249 20.2643 137.893 20.0644 137.598 19.79L143.358 17.1026C143.851 16.8736 144.334 16.6468 144.187 16.1254C143.737 14.9152 142.853 13.9156 141.707 13.321C140.561 12.7264 139.234 12.5793 137.986 12.9082C136.737 13.2372 135.656 14.0187 134.951 15.1009C134.247 16.183 133.97 17.4884 134.175 18.7632C134.38 20.038 135.051 21.1911 136.059 21.9983C137.067 22.8055 138.339 23.209 139.628 23.1305C140.916 23.052 142.13 22.497 143.032 21.5734C143.934 20.6498 144.461 19.4237 144.509 18.1335C144.489 17.9163 144.255 17.7314 143.911 17.8937ZM136.789 17.941C136.788 17.4493 136.932 16.9682 137.201 16.5569C137.471 16.1455 137.854 15.8219 138.305 15.6257C138.756 15.4295 139.254 15.3693 139.739 15.4525C140.224 15.5358 140.673 15.7588 141.033 16.0942L136.795 18.069C136.794 18.027 136.789 17.984 136.789 17.941Z" fill="#14AE5C"/>
<path d="M110.753 13.7712C110.149 13.2521 109.412 12.9105 108.626 12.7843C107.839 12.6581 107.033 12.7523 106.297 13.0564V12.9349C106.297 12.8166 106.25 12.7033 106.166 12.6197C106.083 12.5361 105.969 12.4891 105.851 12.4888H104.063C103.945 12.4888 103.832 12.5358 103.748 12.6194C103.664 12.7031 103.617 12.8166 103.617 12.9349V22.4247C103.617 22.5431 103.664 22.6567 103.748 22.7405C103.831 22.8244 103.945 22.8716 104.063 22.8719H105.851C105.97 22.8719 106.083 22.8248 106.167 22.7409C106.251 22.6571 106.298 22.5433 106.298 22.4247V17.0574C106.297 16.743 106.387 16.4349 106.555 16.1698C106.724 15.9046 106.966 15.6935 107.251 15.5616C107.537 15.4296 107.854 15.3823 108.165 15.4252C108.477 15.4682 108.769 15.5997 109.008 15.804V15.7954C109.053 15.833 109.105 15.8615 109.161 15.879C109.217 15.8966 109.276 15.903 109.334 15.8978C109.393 15.8926 109.449 15.8759 109.501 15.8488C109.553 15.8216 109.599 15.7845 109.637 15.7395L110.786 14.371C110.857 14.2852 110.893 14.1758 110.887 14.0646C110.881 13.9534 110.833 13.8487 110.753 13.7712Z" fill="#14AE5C"/>
<path d="M97.1601 7.35576C95.1692 6.166 92.8963 5.53024 90.577 5.51434C88.3111 5.50885 86.0692 5.9787 83.9961 6.89354C83.9961 6.89354 85.4634 3.29883 90.7748 3.29883C91.9898 3.32599 93.1855 3.60716 94.2852 4.12425C95.3849 4.64134 96.3642 5.38289 97.1601 6.30122C97.9559 5.38303 98.9351 4.64156 100.035 4.12448C101.134 3.60739 102.33 3.32614 103.544 3.29883C108.856 3.29883 110.324 6.89354 110.324 6.89354C108.251 5.97864 106.009 5.50879 103.742 5.51434C101.423 5.53043 99.1508 6.16619 97.1601 7.35576Z" fill="#14AE5C"/>
<path d="M100.597 0.644775C101.422 0.221019 102.336 0 103.264 0C104.192 0 105.106 0.221019 105.932 0.644775C104.258 0.830631 102.642 1.36132 101.184 2.20335C99.7258 3.04537 98.4582 4.18046 97.4609 5.53697C97.5803 4.53769 97.9245 3.57842 98.4675 2.73114C99.0106 1.88386 99.7385 1.17056 100.597 0.644775Z" fill="#14AE5C"/>
<path d="M103.817 7.31382C103.014 6.91386 102.131 6.699 101.234 6.68505C100.337 6.6711 99.4481 6.85841 98.6328 7.2332C100.135 7.17296 101.62 7.56546 102.896 8.35977C104.2 9.0481 105.257 10.1248 105.921 11.4406C105.978 10.6266 105.812 9.81249 105.442 9.08551C105.071 8.35852 104.509 7.74607 103.817 7.31382Z" fill="#14AE5C"/>
<path d="M90.5072 7.31382C91.3105 6.91386 92.1931 6.699 93.0903 6.68505C93.9875 6.6711 94.8765 6.85841 95.6918 7.2332C94.1899 7.17296 92.7045 7.56546 91.4284 8.35977C90.1253 9.04788 89.0689 10.1247 88.4057 11.4406C88.3483 10.6268 88.5136 9.81265 88.8838 9.08562C89.2541 8.35859 89.8153 7.74609 90.5072 7.31382Z" fill="#14AE5C"/>
<path d="M96.1527 6.30237L94.3532 21.8959C94.3391 22.0207 94.3519 22.1471 94.3905 22.2666C94.4292 22.3862 94.493 22.4961 94.5775 22.589C94.6621 22.6819 94.7655 22.7557 94.8809 22.8054C94.9962 22.8551 95.1209 22.8796 95.2465 22.8773H99.068C99.1936 22.8795 99.3182 22.8548 99.4335 22.805C99.5487 22.7553 99.6521 22.6815 99.7366 22.5886C99.8212 22.4957 99.8849 22.3859 99.9237 22.2665C99.9624 22.147 99.9752 22.0207 99.9613 21.8959L98.1608 6.30237H96.1527Z" fill="#14AE5C"/>
<path d="M93.7285 0.644766C92.9034 0.221104 91.9891 0.00012207 91.0615 0.00012207C90.134 0.00012207 89.2197 0.221104 88.3945 0.644766C90.0678 0.830813 91.6844 1.36159 93.1424 2.2036C94.6003 3.04561 95.8679 4.18059 96.8653 5.53696C96.7458 4.53759 96.4015 3.57827 95.8582 2.73098C95.315 1.88369 94.5868 1.17044 93.7285 0.644766Z" fill="#14AE5C"/>
<path d="M120.851 12.4932H119.065C118.946 12.4932 118.832 12.5401 118.748 12.6237C118.664 12.7073 118.617 12.8208 118.616 12.9393V13.3897C117.824 12.9496 116.93 12.7241 116.024 12.7354C115.117 12.7468 114.23 12.9946 113.448 13.4544C112.667 13.9142 112.019 14.57 111.569 15.3569C111.119 16.1438 110.883 17.0346 110.883 17.9411C110.883 18.8476 111.119 19.7384 111.569 20.5253C112.019 21.3122 112.667 21.968 113.448 22.4278C114.23 22.8876 115.117 23.1354 116.024 23.1468C116.93 23.1581 117.824 22.9326 118.616 22.4925V22.9408C118.616 22.9996 118.628 23.0578 118.65 23.1122C118.673 23.1665 118.706 23.2158 118.748 23.2574C118.789 23.2989 118.839 23.3318 118.893 23.3542C118.947 23.3767 119.006 23.3881 119.065 23.388H120.851C120.91 23.3881 120.968 23.3766 121.022 23.3542C121.077 23.3318 121.126 23.2989 121.168 23.2573C121.209 23.2158 121.242 23.1664 121.265 23.1121C121.287 23.0578 121.298 22.9995 121.298 22.9408V12.9436C121.299 12.8846 121.288 12.8261 121.265 12.7715C121.243 12.7168 121.21 12.6671 121.169 12.6253C121.127 12.5834 121.078 12.5502 121.023 12.5275C120.969 12.5048 120.91 12.4932 120.851 12.4932ZM116.091 20.4651C115.592 20.4651 115.104 20.317 114.688 20.0396C114.273 19.7621 113.949 19.3677 113.758 18.9063C113.567 18.4449 113.517 17.9372 113.615 17.4474C113.712 16.9576 113.953 16.5077 114.306 16.1545C114.659 15.8014 115.109 15.5609 115.599 15.4635C116.088 15.366 116.596 15.416 117.058 15.6071C117.519 15.7983 117.913 16.1219 118.191 16.5372C118.468 16.9524 118.616 17.4406 118.616 17.94C118.616 18.6097 118.35 19.252 117.877 19.7255C117.403 20.1991 116.761 20.4651 116.091 20.4651Z" fill="#14AE5C"/>
<path d="M134.163 12.4942H132.138C132.045 12.4924 131.953 12.5195 131.876 12.5719C131.799 12.6243 131.74 12.6993 131.708 12.7866L128.497 19.6729L125.286 12.7866C125.254 12.6992 125.195 12.6241 125.118 12.5717C125.041 12.5193 124.949 12.4922 124.856 12.4942H122.83C122.762 12.498 122.695 12.5184 122.637 12.5536C122.578 12.5888 122.529 12.6378 122.494 12.6963C122.459 12.7548 122.438 12.821 122.434 12.8892C122.43 12.9574 122.443 13.0255 122.472 13.0876L127.037 22.8774C127.075 22.9581 127.136 23.0257 127.213 23.0715C127.29 23.1173 127.378 23.1391 127.467 23.1343H129.538C129.627 23.139 129.715 23.1171 129.792 23.0713C129.868 23.0255 129.929 22.958 129.968 22.8774L134.533 13.0876C134.561 13.0246 134.574 12.9556 134.569 12.8865C134.565 12.8175 134.543 12.7507 134.507 12.692C134.47 12.6334 134.42 12.5846 134.36 12.5501C134.3 12.5156 134.232 12.4964 134.163 12.4942Z" fill="#14AE5C"/>
<path d="M150.048 20.1952H149.359C149.131 20.1952 148.912 20.1046 148.751 19.9434C148.59 19.7821 148.499 19.5634 148.499 19.3353V9.45953C148.499 9.34112 148.452 9.22766 148.368 9.14403C148.284 9.06039 148.17 9.01343 148.052 9.01343H146.266C146.148 9.01343 146.035 9.06043 145.951 9.14409C145.867 9.22775 145.82 9.34122 145.82 9.45953V19.3353C145.82 19.8001 145.912 20.2604 146.089 20.6898C146.267 21.1193 146.528 21.5096 146.856 21.8383C147.185 22.167 147.575 22.4278 148.005 22.6057C148.434 22.7836 148.894 22.8752 149.359 22.8752H150.048C150.167 22.8752 150.28 22.828 150.364 22.7442C150.448 22.6603 150.495 22.5466 150.495 22.428V20.6403C150.495 20.5221 150.447 20.4089 150.364 20.3255C150.28 20.2421 150.166 20.1952 150.048 20.1952Z" fill="#14AE5C"/>
<path d="M23.0878 12.735C22.0582 12.7352 21.0518 13.0407 20.1958 13.6129C19.3398 14.1851 18.6727 14.9982 18.2788 15.9495C17.8849 16.9008 17.782 17.9476 17.983 18.9574C18.184 19.9672 18.6799 20.8947 19.408 21.6227C20.1361 22.3507 21.0638 22.8464 22.0736 23.0472C23.0835 23.248 24.1302 23.1448 25.0814 22.7508C26.0326 22.3567 26.8457 21.6894 27.4177 20.8333C27.9897 19.9772 28.295 18.9707 28.295 17.9411C28.2947 16.5602 27.746 15.236 26.7695 14.2598C25.793 13.2835 24.4687 12.735 23.0878 12.735ZM23.0878 20.4662C22.5884 20.4662 22.1002 20.3181 21.6849 20.0406C21.2697 19.7632 20.946 19.3688 20.7549 18.9074C20.5638 18.446 20.5138 17.9383 20.6112 17.4484C20.7087 16.9586 20.9492 16.5087 21.3023 16.1555C21.6554 15.8024 22.1054 15.5619 22.5952 15.4645C23.085 15.367 23.5927 15.4171 24.0541 15.6082C24.5155 15.7993 24.9099 16.1229 25.1874 16.5382C25.4648 16.9534 25.6129 17.4416 25.6129 17.9411C25.6129 18.6108 25.3469 19.253 24.8733 19.7266C24.3998 20.2001 23.7575 20.4662 23.0878 20.4662Z" fill="#14AE5C"/>
<path d="M39.397 12.4932H37.6093C37.491 12.4932 37.3775 12.5402 37.2938 12.6238C37.2102 12.7075 37.1632 12.821 37.1632 12.9393V13.3897C36.3707 12.9496 35.477 12.7241 34.5706 12.7354C33.6642 12.7468 32.7764 12.9946 31.9952 13.4544C31.2139 13.9142 30.5663 14.57 30.1163 15.3569C29.6664 16.1438 29.4297 17.0346 29.4297 17.9411C29.4297 18.8476 29.6664 19.7384 30.1163 20.5253C30.5663 21.3122 31.2139 21.968 31.9952 22.4278C32.7764 22.8876 33.6642 23.1354 34.5706 23.1468C35.477 23.1581 36.3707 22.9326 37.1632 22.4925V22.7967C37.1631 23.3526 36.9795 23.893 36.6409 24.3338C36.3024 24.7747 35.8277 25.0915 35.2906 25.2349C34.7536 25.3784 34.1842 25.3406 33.6708 25.1273C33.1575 24.9141 32.7289 24.5373 32.4516 24.0555C32.4223 24.0046 32.3833 23.96 32.3367 23.9242C32.2901 23.8884 32.2369 23.8622 32.1802 23.8471C32.1235 23.8319 32.0643 23.828 32.0061 23.8358C31.9479 23.8435 31.8918 23.8627 31.841 23.8921L30.292 24.7854C30.1943 24.842 30.1218 24.9335 30.0891 25.0414C30.0564 25.1494 30.0659 25.2657 30.1157 25.367C30.6832 26.3658 31.5654 27.1489 32.6246 27.5938C33.6837 28.0388 34.8604 28.1208 35.971 27.827C37.0817 27.5332 38.0639 26.8801 38.7645 25.9696C39.4651 25.0591 39.8447 23.9424 39.8441 22.7935V12.9371C39.8433 12.8191 39.7958 12.7062 39.712 12.623C39.6283 12.5398 39.515 12.4932 39.397 12.4932ZM34.637 20.4651C34.1376 20.4651 33.6494 20.317 33.2341 20.0396C32.8189 19.7621 32.4952 19.3677 32.3041 18.9063C32.113 18.4449 32.063 17.9372 32.1604 17.4474C32.2578 16.9576 32.4983 16.5077 32.8515 16.1545C33.2046 15.8014 33.6546 15.5609 34.1444 15.4635C34.6342 15.366 35.1419 15.416 35.6033 15.6071C36.0647 15.7983 36.4591 16.1219 36.7365 16.5372C37.014 16.9524 37.1621 17.4406 37.1621 17.94C37.1621 18.6095 36.8962 19.2516 36.4229 19.7252C35.9496 20.1987 35.3065 20.4649 34.637 20.4651Z" fill="#14AE5C"/>
<path d="M57.9885 12.2233H56.1911V9.46065C56.1911 9.40197 56.1796 9.34388 56.1571 9.28968C56.1346 9.23549 56.1016 9.18625 56.0601 9.14481C56.0186 9.10338 55.9692 9.07054 55.915 9.04819C55.8607 9.02583 55.8026 9.01439 55.7439 9.01453H53.9563C53.838 9.01453 53.7245 9.06153 53.6408 9.14519C53.5572 9.22885 53.5102 9.34233 53.5102 9.46065V12.2233H51.7117C51.5934 12.2233 51.48 12.2703 51.3963 12.354C51.3126 12.4376 51.2656 12.5511 51.2656 12.6694V14.4571C51.2655 14.5158 51.2769 14.5739 51.2993 14.6281C51.3216 14.6824 51.3545 14.7317 51.3959 14.7732C51.4374 14.8148 51.4866 14.8477 51.5408 14.8702C51.595 14.8927 51.6531 14.9043 51.7117 14.9043H53.5102V20.1362C53.5102 20.8633 53.7989 21.5606 54.313 22.0748C54.827 22.5891 55.5242 22.8781 56.2513 22.8784H57.7402C57.8588 22.8784 57.9725 22.8313 58.0564 22.7474C58.1402 22.6636 58.1874 22.5498 58.1874 22.4312V20.6436C58.1874 20.525 58.1402 20.4112 58.0564 20.3273C57.9725 20.2435 57.8588 20.1964 57.7402 20.1964H56.2513C56.2356 20.1961 56.2205 20.1896 56.2095 20.1784C56.1984 20.1671 56.1922 20.1519 56.1922 20.1362V14.9054H57.9885C58.1071 14.9054 58.2208 14.8582 58.3047 14.7744C58.3886 14.6905 58.4357 14.5768 58.4357 14.4582V12.6705C58.4358 12.6117 58.4244 12.5535 58.4019 12.4992C58.3795 12.4449 58.3466 12.3955 58.305 12.354C58.2635 12.3124 58.2141 12.2795 58.1598 12.2571C58.1055 12.2346 58.0472 12.2232 57.9885 12.2233Z" fill="#14AE5C"/>
<path d="M50.7879 17.8938L48.5058 18.958C48.3439 19.3267 48.0962 19.6513 47.7832 19.9047C47.4702 20.158 47.1011 20.3327 46.7067 20.4142C46.3123 20.4957 45.9042 20.4815 45.5164 20.3729C45.1287 20.2643 44.7726 20.0644 44.4779 19.79L50.2376 17.1026C50.7299 16.8736 51.2115 16.6468 51.0653 16.1254C50.6154 14.9158 49.7317 13.9167 48.5861 13.3225C47.4405 12.7282 46.1148 12.5812 44.8669 12.9101C43.6189 13.2389 42.5378 14.0201 41.8339 15.1018C41.1299 16.1835 40.8533 17.4883 41.058 18.7625C41.2626 20.0368 41.9338 21.1894 42.9411 21.9962C43.9484 22.8031 45.2197 23.2065 46.5079 23.1281C47.7961 23.0496 49.009 22.4949 49.911 21.5718C50.8129 20.6487 51.3393 19.4231 51.3878 18.1335C51.3673 17.9163 51.1341 17.7315 50.7879 17.8938ZM43.6684 17.9411C43.6677 17.4494 43.8108 16.9682 44.0801 16.5567C44.3493 16.1453 44.733 15.8215 45.1838 15.6253C45.6347 15.4291 46.133 15.3689 46.6176 15.4522C47.1022 15.5355 47.5519 15.7587 47.9113 16.0943L43.6738 18.069C43.6727 18.0271 43.6684 17.9841 43.6684 17.9411Z" fill="#14AE5C"/>
<path d="M79.4702 17.8938L77.188 18.958C77.0262 19.3269 76.7784 19.6517 76.4654 19.9052C76.1523 20.1587 75.783 20.3335 75.3885 20.415C74.994 20.4964 74.5857 20.4822 74.1978 20.3735C73.8099 20.2647 73.4537 20.0647 73.159 19.79L78.9187 17.1026C79.4111 16.8736 79.8948 16.6468 79.7475 16.1255C79.2975 14.915 78.4134 13.9151 77.267 13.3204C76.1207 12.7256 74.7942 12.5784 73.5454 12.9074C72.2965 13.2364 71.2147 14.0181 70.5102 15.1004C69.8058 16.1828 69.529 17.4885 69.7338 18.7636C69.9386 20.0387 70.6102 21.192 71.6182 21.9994C72.6262 22.8067 73.8984 23.2104 75.1874 23.1318C76.4764 23.0532 77.6902 22.498 78.5926 21.5742C79.495 20.6504 80.0216 19.424 80.07 18.1335C80.0474 17.9164 79.8153 17.7315 79.4702 17.8938ZM72.3518 17.9411C72.3511 17.4494 72.4942 16.9682 72.7634 16.5568C73.0327 16.1453 73.4163 15.8216 73.8671 15.6253C74.318 15.4291 74.8164 15.3689 75.301 15.4522C75.7856 15.5356 76.2352 15.7587 76.5946 16.0943L72.3582 18.069C72.3539 18.0271 72.3496 17.9841 72.3496 17.9411H72.3518Z" fill="#14AE5C"/>
<path d="M64.238 12.7349C63.6732 12.7337 63.1137 12.8433 62.5911 13.0574V9.45734C62.5911 9.39866 62.5796 9.34057 62.5571 9.28637C62.5346 9.23218 62.5016 9.18294 62.4601 9.1415C62.4186 9.10006 62.3692 9.06723 62.315 9.04487C62.2607 9.02252 62.2026 9.01109 62.1439 9.01123H60.3563C60.2379 9.01123 60.1245 9.05823 60.0408 9.1419C59.9572 9.22556 59.9102 9.33902 59.9102 9.45734V22.4258C59.9102 22.5442 59.9571 22.6578 60.0408 22.7416C60.1244 22.8254 60.2378 22.8727 60.3563 22.8729H62.1429C62.2615 22.8729 62.3752 22.8258 62.4591 22.742C62.5429 22.6581 62.59 22.5444 62.59 22.4258V17.0584C62.59 16.8422 62.6327 16.628 62.7154 16.4282C62.7982 16.2284 62.9195 16.0469 63.0724 15.8939C63.2253 15.741 63.4069 15.6197 63.6067 15.537C63.8065 15.4542 64.0206 15.4116 64.2369 15.4116C64.4532 15.4116 64.6673 15.4542 64.8671 15.537C65.0669 15.6197 65.2485 15.741 65.4014 15.8939C65.5543 16.0469 65.6756 16.2284 65.7584 16.4282C65.8412 16.628 65.8838 16.8422 65.8838 17.0584V22.4258C65.8838 22.5444 65.9309 22.6581 66.0147 22.742C66.0986 22.8258 66.2123 22.8729 66.3309 22.8729H68.1186C68.2372 22.8729 68.351 22.8258 68.4348 22.742C68.5187 22.6581 68.5658 22.5444 68.5658 22.4258V17.0584C68.5647 15.9114 68.1082 14.8117 67.2967 14.001C66.4852 13.1903 65.385 12.7349 64.238 12.7349Z" fill="#14AE5C"/>
<path d="M89.0508 13.7712C88.4468 13.2521 87.7108 12.9105 86.9245 12.7843C86.1381 12.6581 85.3322 12.7523 84.5961 13.0564V12.9349C84.596 12.8762 84.5843 12.818 84.5617 12.7638C84.5391 12.7096 84.506 12.6604 84.4644 12.619C84.4228 12.5776 84.3734 12.5447 84.3191 12.5224C84.2648 12.5001 84.2066 12.4886 84.1479 12.4888H82.3613C82.2429 12.4888 82.1293 12.5357 82.0454 12.6194C81.9616 12.703 81.9143 12.8165 81.9141 12.9349V22.4247C81.9141 22.5433 81.9612 22.6571 82.0451 22.7409C82.1289 22.8248 82.2427 22.8719 82.3613 22.8719H84.1479C84.2666 22.8719 84.3804 22.8248 84.4645 22.741C84.5485 22.6572 84.5959 22.5434 84.5961 22.4247V17.0574C84.5949 16.743 84.684 16.4349 84.8528 16.1696C85.0216 15.9044 85.263 15.6932 85.5483 15.5612C85.8336 15.4292 86.1509 15.3819 86.4623 15.4249C86.7737 15.468 87.0662 15.5995 87.305 15.804V15.7954C87.3961 15.8712 87.5135 15.9079 87.6316 15.8974C87.7496 15.887 87.8587 15.8302 87.935 15.7395L89.083 14.371C89.154 14.2853 89.1901 14.176 89.1841 14.0648C89.1782 13.9537 89.1306 13.8488 89.0508 13.7712Z" fill="#14AE5C"/>
<path d="M13.1641 7.35576C11.1734 6.16619 8.90097 5.53043 6.58204 5.51434C4.31573 5.50879 2.07344 5.97864 0 6.89354C0 6.89354 1.46733 3.29883 6.77875 3.29883C7.99367 3.32599 9.18945 3.60716 10.2892 4.12425C11.3889 4.64134 12.3682 5.38289 13.1641 6.30122C13.96 5.38289 14.9393 4.64134 16.039 4.12425C17.1387 3.60716 18.3345 3.32599 19.5494 3.29883C24.8619 3.29883 26.3281 6.89354 26.3281 6.89354C24.2547 5.97864 22.0124 5.50879 19.7461 5.51434C17.4272 5.53043 15.1547 6.16619 13.1641 7.35576Z" fill="#14AE5C"/>
<path d="M16.5966 0.644766C17.422 0.221095 18.3364 0.00012207 19.2642 0.00012207C20.1919 0.00012207 21.1063 0.221095 21.9317 0.644766C20.2584 0.830813 18.6418 1.36159 17.1839 2.2036C15.726 3.04561 14.4583 4.18059 13.4609 5.53696C13.5803 4.53768 13.9245 3.57841 14.4675 2.73113C15.0106 1.88385 15.7385 1.17056 16.5966 0.644766Z" fill="#14AE5C"/>
<path d="M19.8174 7.31382C19.0141 6.91386 18.1315 6.699 17.2343 6.68505C16.337 6.6711 15.4481 6.85841 14.6328 7.2332C16.1347 7.17289 17.6201 7.5654 18.8961 8.35977C20.1996 9.0477 21.2565 10.1245 21.92 11.4406C21.9773 10.6267 21.8118 9.81248 21.4414 9.08544C21.071 8.3584 20.5095 7.74595 19.8174 7.31382Z" fill="#14AE5C"/>
<path d="M6.50722 7.31383C7.31063 6.91377 8.1935 6.69888 9.09089 6.68493C9.98829 6.67098 10.8774 6.85832 11.6929 7.23321C10.1906 7.17289 8.70491 7.56538 7.42847 8.35978C6.12536 9.04788 5.06885 10.1247 4.40565 11.4406C4.34829 10.6268 4.51359 9.81266 4.88383 9.08563C5.25407 8.3586 5.81527 7.74609 6.50722 7.31383Z" fill="#14AE5C"/>
<path d="M12.1605 6.30237L10.361 21.8959C10.3469 22.0207 10.3597 22.1471 10.3983 22.2666C10.437 22.3862 10.5008 22.4961 10.5853 22.589C10.6699 22.6819 10.7733 22.7557 10.8887 22.8054C11.0041 22.8551 11.1287 22.8796 11.2543 22.8773H15.0748C15.2003 22.8795 15.3248 22.8548 15.4401 22.8051C15.5553 22.7553 15.6586 22.6815 15.7431 22.5886C15.8275 22.4957 15.8912 22.3858 15.9298 22.2664C15.9684 22.1469 15.9811 22.0206 15.967 21.8959L14.1686 6.30237H12.1605Z" fill="#14AE5C"/>
<path d="M9.7257 0.644766C8.90033 0.221095 7.98592 0.00012207 7.05816 0.00012207C6.13041 0.00012207 5.21599 0.221095 4.39062 0.644766C6.06397 0.830622 7.68063 1.36131 9.13858 2.20334C10.5965 3.04536 11.8641 4.18045 12.8614 5.53696C12.742 4.53768 12.3978 3.57841 11.8548 2.73113C11.3117 1.88385 10.5838 1.17056 9.7257 0.644766Z" fill="#14AE5C"/>
</svg>
